<svg xmlns="http://www.w3.org/2000/svg" viewBox="0 0 1600 900" role="img" aria-label="ProtoQuiz is now fully free">
  <defs>
    <linearGradient id="bg" x1="0" y1="0" x2="0" y2="1">
      <stop offset="0" stop-color="#0a0e1a"/>
      <stop offset="1" stop-color="#05080c"/>
    </linearGradient>
    <linearGradient id="lockStroke" x1="0" y1="0" x2="1" y2="1">
      <stop offset="0" stop-color="#06d6e0"/>
      <stop offset="1" stop-color="#b45cf6"/>
    </linearGradient>
    <radialGradient id="glow" cx="0.5" cy="0.5" r="0.5">
      <stop offset="0" stop-color="#06d6e0" stop-opacity="0.35"/>
      <stop offset="1" stop-color="#06d6e0" stop-opacity="0"/>
    </radialGradient>
    <filter id="blur"><feGaussianBlur stdDeviation="6"/></filter>
  </defs>

  <rect width="1600" height="900" fill="url(#bg)"/>
  <circle cx="800" cy="450" r="320" fill="url(#glow)"/>

  <!-- Open padlock -->
  <g stroke="url(#lockStroke)" stroke-width="9" fill="none" stroke-linecap="round" stroke-linejoin="round">
    <!-- Shackle (unlocked, rotated up) -->
    <path d="M 660 410 Q 660 280 800 280 Q 920 280 940 360" filter="url(#blur)" opacity="0.6"/>
    <path d="M 660 410 Q 660 280 800 280 Q 920 280 940 360"/>
    <!-- Body -->
    <rect x="640" y="410" width="320" height="240" rx="28"/>
    <!-- Keyhole -->
    <circle cx="800" cy="510" r="22"/>
    <path d="M 800 532 L 800 590"/>
  </g>

  <!-- FREE text -->
  <text x="800" y="780" text-anchor="middle" font-family="Inter, sans-serif" font-weight="900"
        font-size="72" letter-spacing="12" fill="url(#lockStroke)">FREE</text>

  <!-- Sparkles -->
  <g fill="#06d6e0" opacity="0.9">
    <path d="M 1180 220 l 0 -28 l 4 22 l 22 4 l -22 4 l -4 22 l -4 -22 l -22 -4 l 22 -4 z"/>
    <path d="M 380 700 l 0 -22 l 3 17 l 17 3 l -17 3 l -3 17 l -3 -17 l -17 -3 l 17 -3 z"/>
    <path d="M 1290 660 l 0 -18 l 3 14 l 14 3 l -14 3 l -3 14 l -3 -14 l -14 -3 l 14 -3 z"/>
  </g>
  <g fill="#b45cf6" opacity="0.85">
    <path d="M 320 280 l 0 -22 l 3 17 l 17 3 l -17 3 l -3 17 l -3 -17 l -17 -3 l 17 -3 z"/>
  </g>
</svg>
