<svg xmlns="http://www.w3.org/2000/svg" viewBox="0 0 1600 900" role="img" aria-label="Spaced repetition for EMS">
  <defs>
    <linearGradient id="bg" x1="0" y1="0" x2="0" y2="1">
      <stop offset="0" stop-color="#0a0e1a"/>
      <stop offset="1" stop-color="#05080c"/>
    </linearGradient>
    <linearGradient id="curve" x1="0" y1="0" x2="1" y2="0">
      <stop offset="0" stop-color="#06d6e0"/>
      <stop offset="1" stop-color="#b45cf6"/>
    </linearGradient>
    <radialGradient id="glow" cx="0.5" cy="0.5" r="0.5">
      <stop offset="0" stop-color="#06d6e0" stop-opacity="0.25"/>
      <stop offset="1" stop-color="#06d6e0" stop-opacity="0"/>
    </radialGradient>
  </defs>

  <rect width="1600" height="900" fill="url(#bg)"/>
  <ellipse cx="800" cy="500" rx="600" ry="280" fill="url(#glow)"/>

  <!-- Grid -->
  <g stroke="#16202b" stroke-width="1.5">
    <line x1="200" y1="700" x2="1400" y2="700"/>
    <line x1="200" y1="600" x2="1400" y2="600" opacity="0.6"/>
    <line x1="200" y1="500" x2="1400" y2="500" opacity="0.6"/>
    <line x1="200" y1="400" x2="1400" y2="400" opacity="0.6"/>
    <line x1="200" y1="300" x2="1400" y2="300" opacity="0.6"/>
    <line x1="200" y1="200" x2="200" y2="700"/>
  </g>

  <!-- Axes labels -->
  <g font-family="Inter, sans-serif" font-size="20" fill="#9aa4b2" font-weight="600">
    <text x="200" y="755">Day 0</text>
    <text x="430" y="755">Day 1</text>
    <text x="690" y="755">Day 3</text>
    <text x="970" y="755">Day 7</text>
    <text x="1260" y="755">Day 21</text>
    <text x="120" y="208" text-anchor="end">100%</text>
    <text x="120" y="708" text-anchor="end">0%</text>
  </g>

  <!-- Forgetting curve (jagged: decay, review spike, slower decay, review spike, etc.) -->
  <path d="M 200 220 Q 320 480 460 590
           L 460 240
           Q 600 420 720 540
           L 720 260
           Q 880 380 1000 460
           L 1000 280
           Q 1180 350 1290 400
           L 1290 290
           Q 1380 330 1400 350"
        fill="none" stroke="url(#curve)" stroke-width="5" stroke-linecap="round" stroke-linejoin="round"/>

  <!-- Review markers -->
  <g fill="#06d6e0">
    <circle cx="460" cy="240" r="9"/>
    <circle cx="720" cy="260" r="9"/>
    <circle cx="1000" cy="280" r="9"/>
    <circle cx="1290" cy="290" r="9"/>
  </g>

  <!-- Upward arrows at review points -->
  <g stroke="#b45cf6" stroke-width="3" fill="none" stroke-linecap="round">
    <path d="M 460 350 L 460 270 M 450 285 L 460 270 L 470 285"/>
    <path d="M 720 370 L 720 290 M 710 305 L 720 290 L 730 305"/>
    <path d="M 1000 380 L 1000 310 M 990 325 L 1000 310 L 1010 325"/>
  </g>

  <!-- Title hint top -->
  <g font-family="Inter, sans-serif" fill="#e6edf7">
    <text x="800" y="155" text-anchor="middle" font-size="36" font-weight="800" letter-spacing="2" fill="url(#curve)">SPACED REPETITION</text>
  </g>

  <!-- Sparkle -->
  <g fill="#06d6e0" opacity="0.85">
    <path d="M 1430 180 l 0 -20 l 3 15 l 15 3 l -15 3 l -3 15 l -3 -15 l -15 -3 l 15 -3 z"/>
  </g>
</svg>
